<?xml version="1.0" encoding="utf-8"?>
<svg id="master-artboard" viewBox="0 0 155.99542236328125 160.82432556152344" version="1.1" xmlns="http://www.w3.org/2000/svg" x="0px" y="0px" width="155.99542236328125px" height="160.82432556152344px" style="enable-background:new 0 0 1400 980;"><rect id="ee-background" x="0" y="0" width="155.99542236328125" height="160.82432556152344" style="fill: rgb(255, 255, 255); fill-opacity: 0; pointer-events: none;"/>

<path class="st3" d="M460.6,578.6c-48.8,11.5-42.1,53.7-42.1,89.4c0,20.7-1.4,119,1.1,131c10.5,49.3,61.4,41.6,91.3,41.6&#10;&#9;&#9;c28.1,0,109.3,3.7,131.3-1.5c16.3-3.9,29.7-15.9,35.5-29.7c7.4-17.7,4.2-101.1,4.2-125.5c0-40.1,8.9-82.6-29.8-101.5&#10;&#9;&#9;c-17.1-8.4-41.6-5.2-61.8-5.2C563.5,577.2,480.9,573.9,460.6,578.6z" style="fill-rule: evenodd; clip-rule: evenodd; fill: rgb(168, 215, 181);" transform="matrix(0.5481088161468506, 0, 0, 0.5481088161468506, -223.29506969451904, -307.97540283203125)"/><path class="st20" d="M451.7,753.7c-6.9,27.7,14.2,30.6,43.1,30.6l122,0c31.1,0,41.8-2.1,40.6-30.6H451.7L451.7,753.7z&#10;&#9;&#9;&#9; M448.9,703.4c15.3,2.1,203,6.9,212.2-3c13.4-14.4-10.6-39.8-20.3-47.3C587.6,611.5,427.1,628.1,448.9,703.4z" style="fill-rule: evenodd; clip-rule: evenodd; fill: rgb(254, 173, 56);" transform="matrix(0.5481088161468506, 0, 0, 0.5481088161468506, -223.29506969451904, -307.97540283203125)"/><path class="st21" d="M451.7,753.7c-6.9,27.7,14.2,30.6,43.1,30.6l64.8,0v-30.6H451.7L451.7,753.7z M559.6,630.9v75.6&#10;&#9;&#9;&#9;c-50.7-0.2-102.9-2-110.6-3C434.6,654,498.7,629.9,559.6,630.9z" style="fill-rule: evenodd; clip-rule: evenodd; fill: rgb(237, 160, 52);" transform="matrix(0.5481088161468506, 0, 0, 0.5481088161468506, -223.29506969451904, -307.97540283203125)"/><path class="st22" d="M472.7,724c-0.9,0.6-2.6-0.2-3.1,1.1c-111.7,34.9,171.6,27.7,185.8,18.4c-1.8-11.7,3.5-17.2-17.9-15.3&#10;&#9;&#9;&#9;c-15,1.3-7,6.1-24.3,11.9c-29.8-4.6-17.8-23-52.3-3.4c22.4-30.2,34.3,1.3,52.3-0.5c13.6-5.7,9.4-8.5,20.8-11&#10;&#9;&#9;&#9;c14.2-3.1,11.3,2.9,28.9-2.1c-2.8-21.9-23.2-13.9-85.2-13.9l-118.1,0C425.5,709.1,432.4,723.7,472.7,724z" style="fill-rule: evenodd; clip-rule: evenodd; fill: rgb(233, 29, 54);" transform="matrix(0.5481088161468506, 0, 0, 0.5481088161468506, -223.29506969451904, -307.97540283203125)"/><path class="st23" d="M472.7,724c-0.9,0.6-2.6-0.2-3.1,1.1c-69.6,21.7,14.1,27.1,90.6,25.9V709l-100.4,0&#10;&#9;&#9;&#9;C425.5,709.1,432.4,723.7,472.7,724z" style="fill-rule: evenodd; clip-rule: evenodd; fill: rgb(199, 30, 49);" transform="matrix(0.5481088161468506, 0, 0, 0.5481088161468506, -223.29506969451904, -307.97540283203125)"/>
</svg>